<svg width="24" height="24" viewBox="0 0 24 24" fill="none" xmlns="http://www.w3.org/2000/svg">
<path fill-rule="evenodd" clip-rule="evenodd" d="M4.73334 4.00009C4.73334 3.52144 5.12136 3.13342 5.6 3.13342H18.4C18.8787 3.13342 19.2667 3.52144 19.2667 4.00009V21.6001C19.2667 21.9151 19.0957 22.2054 18.8201 22.3581C18.5446 22.5108 18.2078 22.502 17.9407 22.335L12 18.6221L6.05934 22.335C5.79217 22.502 5.45543 22.5108 5.17987 22.3581C4.90431 22.2054 4.73334 21.9151 4.73334 21.6001V4.00009ZM6.46667 4.86676V20.0364L11.0813 17.1522C11.6434 16.8009 12.3566 16.8009 12.9187 17.1522L17.5333 20.0364V4.86676H6.46667Z" fill="#5F5F5F"/>
</svg>
