<svg width="24" height="24" viewBox="0 0 24 24" fill="none" xmlns="http://www.w3.org/2000/svg">
<path fill-rule="evenodd" clip-rule="evenodd" d="M13.6191 4.80867C14.7013 4.07353 16.0695 4.05913 17.0861 4.72673C17.3169 4.87832 17.5634 5.1189 18.2224 5.77792C18.8815 6.43694 19.1221 6.68345 19.2736 6.91428C19.9412 7.93083 19.9268 9.29909 19.1917 10.3813C19.0239 10.6282 18.7642 10.893 18.081 11.5762L17.0911 12.5661C16.7787 12.8786 16.7787 13.3851 17.0911 13.6975C17.4035 14.0099 17.91 14.0099 18.2225 13.6975L19.2124 12.7076L19.281 12.6389C19.8725 12.0477 20.251 11.6693 20.5152 11.2803C21.5956 9.68998 21.6513 7.62006 20.611 6.03598C20.3573 5.64966 19.9876 5.28004 19.4253 4.71797L19.4252 4.71796L19.3538 4.64655L19.2824 4.5751C18.7203 4.01282 18.3507 3.64305 17.9644 3.38934C16.3803 2.34904 14.3104 2.40481 12.72 3.48518C12.3311 3.74941 11.9527 4.12788 11.3614 4.71932L11.2928 4.78797L10.3029 5.77792C9.99044 6.09034 9.99044 6.59687 10.3029 6.90929C10.6153 7.22171 11.1218 7.22171 11.4342 6.90929L12.4242 5.91934C13.1074 5.23614 13.3721 4.97646 13.6191 4.80867ZM6.90874 11.4348C7.22116 11.1224 7.22116 10.6158 6.90874 10.3034C6.59632 9.99099 6.08979 9.99099 5.77737 10.3034L4.78742 11.2934L4.71875 11.362C4.12732 11.9533 3.74886 12.3316 3.48463 12.7206C2.40426 14.3109 2.34849 16.3809 3.38879 17.9649C3.64251 18.3513 4.01228 18.7209 4.57458 19.283L4.646 19.3544L4.71742 19.4258L4.71746 19.4258C5.27951 19.9881 5.64912 20.3579 6.03544 20.6116C7.61951 21.6519 9.68944 21.5961 11.2798 20.5157C11.6688 20.2515 12.0471 19.873 12.6384 19.2816L12.707 19.213L13.697 18.223C14.0094 17.9106 14.0094 17.4041 13.697 17.0916C13.3845 16.7792 12.878 16.7792 12.5656 17.0916L11.5756 18.0816C10.8924 18.7648 10.6277 19.0245 10.3807 19.1922C9.29854 19.9274 7.93028 19.9418 6.91373 19.2742C6.6829 19.1226 6.43639 18.882 5.77737 18.223C5.11835 17.564 4.87777 17.3175 4.72618 17.0866C4.05858 16.0701 4.07298 14.7018 4.80813 13.6197C4.97591 13.3727 5.23559 13.1079 5.91879 12.4247L6.90874 11.4348ZM15.3948 9.73698C15.7072 9.42456 15.7072 8.91803 15.3948 8.60561C15.0823 8.29319 14.5758 8.29319 14.2634 8.60561L8.60653 14.2625C8.29411 14.5749 8.29411 15.0814 8.60653 15.3938C8.91895 15.7063 9.42548 15.7063 9.7379 15.3938L15.3948 9.73698Z" fill="#5F5F5F"/>
</svg>
