<svg width="24" height="24" viewBox="0 0 24 24" fill="none" xmlns="http://www.w3.org/2000/svg">
<path d="M4.00466 14.0076C2.89858 14.0076 2 13.1091 2 12.0047C2 10.9003 2.89858 10 4.00466 10C5.11073 10 6.00931 10.9003 6.00931 12.0047C6.00931 13.1091 5.11073 14.0076 4.00466 14.0076" fill="#FF805D"/>
<path d="M11.5003 14.0076C10.3942 14.0076 9.49561 13.1091 9.49561 12.0047C9.49561 10.9003 10.3942 10 11.5003 10C12.6063 10 13.5049 10.9003 13.5049 12.0047C13.5049 13.1091 12.6063 14.0076 11.5003 14.0076" fill="#FF805D"/>
<path d="M18.9954 14.0076C17.8893 14.0076 16.9907 13.1091 16.9907 12.0047C16.9907 10.9003 17.8893 10 18.9954 10C20.1015 10 21 10.9003 21 12.0047C21 13.1091 20.1015 14.0076 18.9954 14.0076" fill="#FF805D"/>
</svg>
