<svg width="19" height="14" viewBox="0 0 19 14" fill="none" xmlns="http://www.w3.org/2000/svg">
<path d="M4 6.25C4 6.88366 3.62418 7.19031 2.70834 7.65001C2.60563 7.70134 2.60563 7.70134 2.5046 7.75171C2.32014 7.84395 2.1675 7.92583 2.04271 8H3.5C3.77614 8 4 8.22386 4 8.5C4 8.77614 3.77614 9 3.5 9H1.062C0.785855 9 0.561997 8.77614 0.561997 8.5C0.561997 7.75123 1.00074 7.38561 2.05739 6.85729C2.16025 6.806 2.16025 6.806 2.25974 6.75627C2.8089 6.48063 3 6.3247 3 6.25C3 6.16501 2.75248 6 2.375 6C1.99751 6 1.75 6.16501 1.75 6.25C1.75 6.52614 1.52614 6.75 1.25 6.75C0.973855 6.75 0.749997 6.52614 0.749997 6.25C0.749997 5.50699 1.51048 5 2.375 5C3.23951 5 4 5.50699 4 6.25ZM2.5 0C2.77614 0 3 0.223858 3 0.5V3H3.5C3.77614 3 4 3.22386 4 3.5C4 3.77614 3.77614 4 3.5 4H1.5C1.22385 4 0.999997 3.77614 0.999997 3.5C0.999997 3.22386 1.22385 3 1.5 3H2V1H1.5C1.22385 1 0.999997 0.776142 0.999997 0.5C0.999997 0.223858 1.22385 0 1.5 0H2.5ZM5.5 3C5.22385 3 5 2.77614 5 2.5C5 2.22386 5.22385 2 5.5 2H18.5C18.7761 2 19 2.22386 19 2.5C19 2.77614 18.7761 3 18.5 3H5.5ZM5.5 8C5.22385 8 5 7.77614 5 7.5C5 7.22386 5.22385 7 5.5 7H18.5C18.7761 7 19 7.22386 19 7.5C19 7.77614 18.7761 8 18.5 8H5.5ZM5.5 13C5.22385 13 5 12.7761 5 12.5C5 12.2239 5.22385 12 5.5 12H18.5C18.7761 12 19 12.2239 19 12.5C19 12.7761 18.7761 13 18.5 13H5.5ZM2.25312 12.4115C1.98228 12.4054 1.7646 12.1839 1.7646 11.9116C1.7646 11.6355 1.98845 11.4116 2.2646 11.4116C2.59681 11.4116 2.8117 11.2744 2.82312 11.2107L2.8231 11.2061C2.8231 11.1448 2.60633 11.0001 2.2651 11.0001C1.92361 11.0001 1.7061 11.1451 1.7061 11.2061C1.7061 11.4822 1.48224 11.7061 1.2061 11.7061C0.929955 11.7061 0.706097 11.4822 0.706097 11.2061C0.706097 10.4871 1.43658 10.0001 2.2651 10.0001C3.08103 10.0001 3.80114 10.4726 3.8226 11.1738C3.82326 11.1843 3.8236 11.1949 3.8236 11.2056C3.8236 11.4533 3.7369 11.6735 3.58936 11.8557C3.83743 12.0701 3.9926 12.3527 3.99974 12.6823C4.00011 12.6902 4.0003 12.6981 4.0003 12.7061C4.0003 13.4786 3.18899 14.0001 2.2643 14.0001C1.34043 14.0001 0.529297 13.4784 0.529297 12.7061C0.529297 12.43 0.753155 12.2061 1.0293 12.2061C1.30544 12.2061 1.5293 12.43 1.5293 12.7061C1.5293 12.8101 1.82466 13.0001 2.2643 13.0001C2.6971 13.0001 2.98992 12.8167 3.00003 12.7116L3 12.7061C3 12.6015 2.7052 12.4121 2.265 12.4121C2.26098 12.4121 2.25702 12.4119 2.25312 12.4115Z" fill="black"/>
</svg>
