<svg width="24" height="24" viewBox="0 0 24 24" fill="none" xmlns="http://www.w3.org/2000/svg">
<path fill-rule="evenodd" clip-rule="evenodd" d="M21.524 9.75284C20.8849 5.81944 17.5439 2.89321 13.5606 2.77801C13.3712 2.77059 13.1867 2.83878 13.0476 2.96755C12.9085 3.09632 12.8264 3.27511 12.8192 3.46451V3.46451V3.52859L13.2677 10.238C13.2971 10.6896 13.6854 11.0329 14.1373 11.0068L20.865 10.5583C21.0545 10.5443 21.2307 10.4553 21.3544 10.311C21.4781 10.1666 21.5392 9.97894 21.524 9.78946V9.75284Z" stroke="#FF805D" stroke-width="1.5" stroke-linecap="round" stroke-linejoin="round"/>
<path d="M8.90163 6.76889C9.32959 6.6699 9.76753 6.88887 9.94511 7.29063C9.99163 7.38512 10.0196 7.48766 10.0275 7.59269C10.119 8.89246 10.3112 11.7391 10.4211 13.2769C10.4398 13.5539 10.5682 13.812 10.7778 13.9941C10.9874 14.1762 11.2609 14.2673 11.5378 14.2472V14.2472L17.1854 13.8993C17.4375 13.8842 17.6847 13.9739 17.8684 14.1472C18.0522 14.3205 18.1561 14.5621 18.1556 14.8147V14.8147C17.9268 18.225 15.4765 21.0761 12.1393 21.8151C8.80214 22.5541 5.3773 21.0041 3.73001 18.0092C3.23826 17.1472 2.92684 16.1943 2.81467 15.2083C2.76672 14.9056 2.74833 14.5991 2.75975 14.2929C2.76947 10.6509 5.32726 7.51285 8.89248 6.76889" stroke="#FF805D" stroke-width="1.5" stroke-linecap="round" stroke-linejoin="round"/>
</svg>
