<svg width="42" height="56" viewBox="0 0 42 56" fill="none" xmlns="http://www.w3.org/2000/svg">
<path d="M32.81 25.54C34.5762 23.162 35.6475 20.3405 35.9048 17.3896C36.1621 14.4387 35.5951 11.4743 34.2671 8.82663C32.9391 6.17892 30.9022 3.95184 28.3832 2.39342C25.8642 0.835001 22.9621 0.00643383 20 0H0V56H26C29.6302 55.9912 33.1495 54.7481 35.9799 52.475C38.8103 50.2019 40.7836 47.0338 41.5756 43.491C42.3677 39.9483 41.9315 36.2415 40.3386 32.9794C38.7457 29.7173 36.0908 27.0939 32.81 25.54ZM8 8H20C22.1217 8 24.1566 8.84286 25.6569 10.3431C27.1571 11.8434 28 13.8783 28 16C28 18.1217 27.1571 20.1566 25.6569 21.6569C24.1566 23.1571 22.1217 24 20 24H8V8ZM26 48H8V32H26C28.1217 32 30.1566 32.8429 31.6569 34.3431C33.1571 35.8434 34 37.8783 34 40C34 42.1217 33.1571 44.1566 31.6569 45.6569C30.1566 47.1571 28.1217 48 26 48Z" fill="black"/>
</svg>
