<svg width="58" height="56" viewBox="0 0 58 56" fill="none" xmlns="http://www.w3.org/2000/svg">
<path d="M58 0H16V8H58V0Z" fill="black"/>
<path d="M58 16H16V24H58V16Z" fill="black"/>
<path d="M4 24C6.20914 24 8 22.2091 8 20C8 17.7909 6.20914 16 4 16C1.79086 16 0 17.7909 0 20C0 22.2091 1.79086 24 4 24Z" fill="black"/>
<path d="M4 8C6.20914 8 8 6.20914 8 4C8 1.79086 6.20914 0 4 0C1.79086 0 0 1.79086 0 4C0 6.20914 1.79086 8 4 8Z" fill="black"/>
<path d="M58 32H16V40H58V32Z" fill="black"/>
<path d="M4 40C6.20914 40 8 38.2091 8 36C8 33.7909 6.20914 32 4 32C1.79086 32 0 33.7909 0 36C0 38.2091 1.79086 40 4 40Z" fill="black"/>
<path d="M58 48H16V56H58V48Z" fill="black"/>
<path d="M4 56C6.20914 56 8 54.2091 8 52C8 49.7909 6.20914 48 4 48C1.79086 48 0 49.7909 0 52C0 54.2091 1.79086 56 4 56Z" fill="black"/>
</svg>
