<svg width="62" height="58" viewBox="0 0 62 58" fill="none" xmlns="http://www.w3.org/2000/svg">
<g clip-path="url(#clip0)">
<path d="M6 25H14V4C14 2.93913 13.5786 1.92172 12.8284 1.17157C12.0783 0.421428 11.0609 0 10 0H0V8H6V25Z" fill="black"/>
<path d="M62 1H23V9H62V1Z" fill="black"/>
<path d="M62 17H23V25H62V17Z" fill="black"/>
<path d="M62 33H23V41H62V33Z" fill="black"/>
<path d="M62 49H23V57H62V49Z" fill="black"/>
<path d="M10.36 48.29L13.79 44.86C14.8404 43.805 15.555 42.4627 15.8437 41.0022C16.1324 39.5417 15.9823 38.0284 15.4123 36.6531C14.8423 35.2778 13.8779 34.102 12.6406 33.2739C11.4034 32.4459 9.94873 32.0026 8.45997 32H-2.7889e-05V40H7.33997L4.69997 42.64C3.20624 44.1301 2.02197 45.9009 1.21535 47.8506C0.408729 49.8002 -0.00432239 51.8901 -2.7889e-05 54C-2.7889e-05 55.0609 0.4214 56.0783 1.17155 56.8284C1.92169 57.5786 2.93911 58 3.99997 58H17V50H9.05997C9.41567 49.3749 9.85283 48.7999 10.36 48.29V48.29Z" fill="black"/>
</g>
<defs>
<clipPath id="clip0">
<rect width="62" height="58" fill="white"/>
</clipPath>
</defs>
</svg>
