<svg width="64" height="32" viewBox="0 0 64 32" fill="none" xmlns="http://www.w3.org/2000/svg">
<path d="M56 0V10.85C51.7016 5.97611 46.0212 2.52642 39.7144 0.959793C33.4075 -0.606833 26.7732 -0.216135 20.6938 2.07992C14.6144 4.37597 9.37815 8.46854 5.68156 13.8133C1.98497 19.158 0.00325047 25.5015 0 32H8C8.00193 27.1413 9.4785 22.3976 12.2345 18.3962C14.9904 14.3947 18.896 11.324 23.4347 9.58999C27.9735 7.85599 32.9316 7.5404 37.6536 8.68495C42.3756 9.82949 46.6389 12.3803 49.88 16H40V24H60C61.0609 24 62.0783 23.5786 62.8284 22.8284C63.5786 22.0783 64 21.0609 64 20V0H56Z" fill="black"/>
</svg>
