<svg width="64" height="32" viewBox="0 0 64 32" fill="none" xmlns="http://www.w3.org/2000/svg">
<path d="M32 0C27.4588 0.00200285 22.97 0.970557 18.8319 2.84129C14.6939 4.71201 11.0015 7.44207 8 10.85V0H0V20C0 21.0609 0.421428 22.0783 1.17157 22.8284C1.92172 23.5786 2.93913 24 4 24H24V16H14.12C17.3611 12.3803 21.6244 9.82949 26.3464 8.68495C31.0684 7.5404 36.0265 7.85599 40.5653 9.58999C45.104 11.324 49.0096 14.3947 51.7655 18.3962C54.5215 22.3976 55.9981 27.1413 56 32H64C64 23.5131 60.6286 15.3737 54.6274 9.37258C48.6263 3.37142 40.4869 0 32 0V0Z" fill="black"/>
</svg>
