<svg width="158" height="30" viewBox="0 0 158 30" fill="none" xmlns="http://www.w3.org/2000/svg">
<path d="M0.163223 3.40681L0.510072 1.76353H20.0152L22.6064 1.50301L23.3001 8.59719L21.0966 8.998L19.1175 4.66934L9.28331 3.58717V14.6493C10.8883 14.3955 12.915 14.1951 15.3634 14.0481L16.6895 10.6413L18.4442 11.0822L18.0565 20.3808L16.2611 20.0601L15.3226 16.8537C12.9966 16.8136 10.9835 16.6667 9.28331 16.4128V26.3527L14.9145 27.4549L14.18 29.499H0L0.346849 27.7756L3.97856 26.4729V4.68938L0.163223 3.40681Z" fill="#FF805D"/>
<path d="M24.9217 2.14429L25.1053 1.2024L32.8788 0V26.8737L36.0617 28.0361L35.7148 29.499H24.8605L25.1869 27.9158L27.9413 26.7936V3.82766L24.9217 2.14429Z" fill="#FF805D"/>
<path d="M38.377 24.6693C38.377 23.3734 38.615 22.338 39.0911 21.5631C39.5672 20.7882 40.3561 20.1737 41.4578 19.7194C42.1787 19.4122 43.056 19.185 44.0898 19.0381C45.1235 18.8911 46.1369 18.8176 47.1298 18.8176C48.0547 18.8176 48.9389 18.8711 49.7822 18.978V17.8958C49.7822 16.68 49.6598 15.5778 49.4149 14.5892C49.1837 13.5872 48.7144 12.8724 48.0071 12.4449C47.7487 12.2846 47.4087 12.1643 46.987 12.0842C46.5789 12.004 46.1505 11.9639 45.7016 11.9639C45.3072 11.9639 44.9059 12.0107 44.4978 12.1042L43.8654 15.6313C43.6069 15.8584 43.3145 16.0521 42.988 16.2124C42.6616 16.3594 42.3827 16.4329 42.1515 16.4329C41.8115 16.4329 41.3898 16.2792 40.8865 15.9719C40.3969 15.6513 39.9684 15.2639 39.6012 14.8096C39.2475 14.3554 39.0707 13.9279 39.0707 13.5271C39.0707 13.1797 39.3019 12.8323 39.7644 12.485C40.2268 12.1376 40.7709 11.8236 41.3966 11.5431C42.512 11.0621 43.8382 10.6814 45.3752 10.4008C46.9258 10.1069 48.1092 9.95992 48.9253 9.95992C50.9656 9.95992 52.4414 10.501 53.3527 11.5832C54.264 12.652 54.7197 14.1216 54.7197 15.992V25.5711C55.5086 26.5598 56.692 27.2478 58.2698 27.6353L58.0045 28.7976C56.3451 29.5591 54.5905 29.9599 52.7406 30C52.4142 29.3454 52.0673 28.7642 51.7001 28.2565C51.3328 27.7488 50.8771 27.2812 50.3331 26.8537C49.9522 27.3748 49.4285 27.8758 48.762 28.3567C48.0956 28.8377 47.3474 29.2318 46.5177 29.5391C45.688 29.8464 44.8379 30 43.9674 30C42.6616 30 41.587 29.7328 40.7437 29.1984C39.914 28.664 39.3087 27.9893 38.9279 27.1743C38.5606 26.3594 38.377 25.5244 38.377 24.6693ZM44.9263 26.9539C45.0759 27.0875 45.2868 27.1543 45.5588 27.1543C46.1301 27.1543 46.8442 27.0541 47.7011 26.8537C48.558 26.6533 49.2517 26.4329 49.7822 26.1924V20.2806C48.5988 20.4142 47.5651 20.5945 46.681 20.8216C45.7968 21.0488 45.1031 21.2892 44.5999 21.5431C44.0966 21.7836 43.7701 21.9906 43.6205 22.1643C43.4029 22.4449 43.2941 22.8791 43.2941 23.4669C43.2941 24.1082 43.4573 24.7896 43.7837 25.511C44.1102 26.2325 44.491 26.7134 44.9263 26.9539Z" fill="#FF805D"/>
<path d="M80.8452 10.4609L80.6003 11.8036L78.254 13.0661L71.5822 29.499L67.7669 29.9399L60.8911 13.0261L57.9735 11.8437L58.2184 10.4609H68.6646L68.3586 11.9038L66.1347 12.9459L70.909 25.3106L75.316 12.986L72.7044 11.8637L72.99 10.4609H80.8452Z" fill="#FF805D"/>
<path d="M82.2831 20.5411C82.2831 18.7108 82.6912 16.9873 83.5073 15.3707C84.3234 13.7408 85.466 12.4315 86.935 11.4429C88.404 10.4542 90.0634 9.95992 91.9133 9.95992C93.7088 9.95992 95.3206 10.3073 96.7488 11.002C98.177 11.6834 99.3127 12.7321 100.156 14.1483C100.999 15.5645 101.421 17.328 101.421 19.4389C101.421 21.2692 101.006 22.9993 100.176 24.6293C99.3467 26.2458 98.2042 27.5484 96.7488 28.5371C95.2934 29.5124 93.6815 30 91.9133 30C90.077 30 88.4312 29.6593 86.9758 28.978C85.534 28.2966 84.3914 27.2545 83.5481 25.8517C82.7048 24.4355 82.2831 22.6653 82.2831 20.5411ZM93.1375 27.2345C93.6679 27.2345 94.1576 27.1677 94.6065 27.0341C95.0553 26.8871 95.409 26.6733 95.6674 26.3928C95.9531 26.0454 96.1775 25.4309 96.3407 24.5491C96.5039 23.654 96.5856 22.7856 96.5856 21.9439C96.5856 20.0868 96.3203 18.4636 95.7898 17.0741C95.2594 15.6713 94.5249 14.5959 93.5863 13.8477C92.6614 13.0995 91.6141 12.7255 90.4443 12.7255C89.3289 12.7255 88.5196 12.9993 88.0163 13.5471C87.7579 13.8811 87.5403 14.4957 87.3635 15.3908C87.2002 16.2725 87.1186 17.161 87.1186 18.0561C87.1186 19.7128 87.3431 21.2358 87.7919 22.6253C88.2544 24.0147 88.9413 25.1303 89.8526 25.9719C90.7639 26.8136 91.8589 27.2345 93.1375 27.2345Z" fill="#FF805D"/>
<path d="M104.369 12.3647L104.552 11.3828L110.939 10.2605L112.061 13.9479C112.904 12.5184 113.727 11.5097 114.529 10.9218C115.332 10.3206 116.223 10.02 117.202 10.02C117.542 10.02 117.916 10.0868 118.324 10.2204C118.732 10.3407 119.12 10.5077 119.487 10.7214C119.909 10.9753 120.249 11.2692 120.508 11.6032C120.78 11.9238 120.916 12.2578 120.916 12.6052C120.916 12.9927 120.732 13.4536 120.365 13.988C120.011 14.509 119.583 14.9633 119.079 15.3507C118.59 15.7248 118.161 15.9118 117.794 15.9118C117.535 15.9118 117.236 15.845 116.896 15.7114C116.556 15.5645 116.277 15.4041 116.06 15.2305L115.652 13.1263C115.162 13.2999 114.591 13.6005 113.938 14.0281C113.285 14.4422 112.748 14.8363 112.326 15.2104V26.8737L117.712 28.016L117.386 29.499H104.185L104.512 27.8557L107.388 26.6733V14.008L104.369 12.3647Z" fill="#FF805D"/>
<path d="M122.782 12.3647L122.966 11.3828L129.352 10.2605L130.474 13.9479C131.317 12.5184 132.14 11.5097 132.943 10.9218C133.745 10.3206 134.636 10.02 135.615 10.02C135.955 10.02 136.33 10.0868 136.738 10.2204C137.146 10.3407 137.533 10.5077 137.901 10.7214C138.322 10.9753 138.662 11.2692 138.921 11.6032C139.193 11.9238 139.329 12.2578 139.329 12.6052C139.329 12.9927 139.145 13.4536 138.778 13.988C138.424 14.509 137.996 14.9633 137.492 15.3507C137.003 15.7248 136.574 15.9118 136.207 15.9118C135.949 15.9118 135.649 15.845 135.309 15.7114C134.969 15.5645 134.691 15.4041 134.473 15.2305L134.065 13.1263C133.575 13.2999 133.004 13.6005 132.351 14.0281C131.698 14.4422 131.161 14.8363 130.739 15.2104V26.8737L136.126 28.016L135.799 29.499H122.598L122.925 27.8557L125.802 26.6733V14.008L122.782 12.3647Z" fill="#FF805D"/>
<path d="M141.195 12.3647L141.379 11.3828L147.765 10.2605L148.887 13.9479C149.73 12.5184 150.553 11.5097 151.356 10.9218C152.158 10.3206 153.049 10.02 154.029 10.02C154.369 10.02 154.743 10.0868 155.151 10.2204C155.559 10.3407 155.946 10.5077 156.314 10.7214C156.735 10.9753 157.075 11.2692 157.334 11.6032C157.606 11.9238 157.742 12.2578 157.742 12.6052C157.742 12.9927 157.558 13.4536 157.191 13.988C156.837 14.509 156.409 14.9633 155.906 15.3507C155.416 15.7248 154.988 15.9118 154.62 15.9118C154.362 15.9118 154.063 15.845 153.723 15.7114C153.383 15.5645 153.104 15.4041 152.886 15.2305L152.478 13.1263C151.988 13.2999 151.417 13.6005 150.764 14.0281C150.111 14.4422 149.574 14.8363 149.152 15.2104V26.8737L154.539 28.016L154.212 29.499H141.012L141.338 27.8557L144.215 26.6733V14.008L141.195 12.3647Z" fill="#FF805D"/>
</svg>
